<svg xmlns="http://www.w3.org/2000/svg" width="150" height="50" viewBox="0,0,150,50"><rect width="100%" height="100%" fill="#f2f2f2"/><path d="M2 34 C87 5,93 49,143 6" stroke="#76dd54" fill="none"/><path fill="#e11d1d" d="M21.81 41.02L21.82 41.04L21.84 41.05Q17.71 29.85 12.57 24.86L12.40 24.68L12.54 24.82Q13.95 25.40 16.92 26.04L16.84 25.97L16.98 26.11Q20.39 29.89 22.94 36.56L23.00 36.62L22.97 36.59Q25.58 29.19 28.21 26.14L28.36 26.30L28.37 26.30Q30.20 26.04 32.63 25.35L32.59 25.31L32.64 25.36Q29.53 28.15 27.36 32.72L27.38 32.74L27.42 32.78Q26.94 33.33 23.56 40.94L23.52 40.91L23.51 40.90Q23.02 41.09 21.80 41.02ZM26.45 43.45L26.43 43.44L26.43 43.44Q29.77 31.13 34.34 26.45L34.28 26.40L32.84 26.93L32.89 26.98Q32.04 27.16 31.21 27.27L31.19 27.25L31.24 27.31Q31.68 26.87 32.50 26.00L32.47 25.97L32.52 26.02Q33.34 25.15 33.80 24.73L33.68 24.61L33.75 24.68Q31.50 25.28 28.07 25.78L28.16 25.87L28.06 25.77Q25.44 29.04 23.38 34.64L23.47 34.73L23.32 34.58Q21.77 30.48 19.94 28.00L19.86 27.92L19.32 27.91L19.42 28.02Q19.12 27.98 18.89 27.98L18.76 27.85L18.87 27.96Q18.60 27.57 16.89 25.52L16.86 25.49L17.03 25.66Q13.53 25.02 11.29 23.88L11.26 23.86L11.37 23.97Q17.38 29.55 21.38 41.28L21.50 41.40L22.48 41.39L22.48 41.39Q22.80 42.02 23.64 43.31L23.73 43.40L25.06 43.36L24.96 43.26Q25.74 43.31 26.38 43.39Z"/><path fill="#58e3c0" d="M67.71 40.26L67.87 40.42L67.86 40.41Q66.34 40.37 64.77 39.95L64.84 40.01L64.73 39.91Q63.54 39.02 63.38 37.38L63.47 37.46L63.54 37.53Q63.47 37.31 63.66 34.68L63.66 34.68L63.70 34.73Q64.56 34.36 66.58 33.98L66.60 34.01L66.53 34.89L66.41 34.77Q66.15 36.52 67.56 37.09L67.55 37.09L67.52 37.06Q68.44 37.53 70.54 37.53L70.57 37.56L70.58 37.57Q72.02 37.26 72.22 37.19L72.32 37.29L72.19 37.16Q73.24 37.14 73.96 36.65L73.98 36.67L73.95 36.64Q75.40 35.73 75.21 33.64L75.19 33.62L75.18 33.60Q74.97 31.15 73.24 29.59L73.17 29.51L73.22 29.57Q71.48 28.00 69.01 28.00L68.99 27.98L69.03 27.79L69.09 27.86Q69.34 27.68 70.21 27.61L70.20 27.60L70.27 27.67Q72.19 27.57 73.56 26.33L73.51 26.28L73.56 26.33Q74.88 25.05 75.04 23.18L75.06 23.20L74.99 23.13Q75.19 22.92 75.19 22.58L75.17 22.56L75.13 22.51Q75.10 20.96 73.73 20.05L73.86 20.18L73.87 20.19Q72.61 19.35 71.01 19.46L70.86 19.31L71.00 19.45Q69.61 19.20 68.39 19.62L68.51 19.74L68.36 19.59Q66.96 20.17 66.65 21.31L66.63 21.28L66.75 21.40Q66.41 22.01 66.48 22.78L66.59 22.88L66.51 22.80Q65.45 22.54 63.40 21.82L63.39 21.82L63.50 21.92Q63.17 20.15 63.21 19.31L63.24 19.34L63.24 19.34Q63.51 17.97 64.58 17.29L64.53 17.24L64.39 17.10Q65.88 16.57 67.48 16.57L67.56 16.66L67.52 16.61Q70.56 16.46 73.72 16.73L73.79 16.79L73.89 16.89Q78.96 17.32 78.66 21.09L78.61 21.04L78.47 20.91Q78.45 22.44 77.95 24.00L77.98 24.03L77.98 24.04Q77.15 27.19 74.78 28.11L74.74 28.06L74.79 28.12Q77.38 28.61 77.99 31.96L78.05 32.02L77.93 31.90Q78.15 33.03 78.23 35.05L78.27 35.09L78.17 35.00Q78.41 39.53 73.80 39.99L73.78 39.97L73.88 40.07Q73.11 40.10 67.82 40.37ZM73.01 42.59L73.02 42.60L72.96 42.54Q73.69 42.69 76.54 42.77L76.46 42.69L76.52 42.75Q78.21 42.76 79.84 42.11L79.96 42.23L79.95 42.22Q80.96 41.10 80.77 39.34L80.78 39.36L80.83 39.41Q80.72 38.08 80.41 36.32L80.37 36.28L80.43 36.34Q79.65 31.79 77.71 30.16L77.81 30.26L77.66 29.92L77.60 29.82L77.53 29.75Q79.29 28.31 80.06 23.94L80.11 23.99L80.15 24.03Q80.13 23.52 80.24 22.56L80.22 22.54L80.29 22.61Q80.25 21.74 80.18 21.05L80.13 21.01L80.29 21.16Q79.97 19.32 78.67 18.63L78.86 18.82L78.67 18.70L78.66 18.70Q78.31 17.66 77.17 17.13L77.27 17.23L77.20 17.16Q75.81 16.60 70.67 16.30L70.66 16.29L70.55 16.18Q68.98 16.21 67.38 16.21L67.31 16.15L67.22 16.05Q65.75 16.18 64.22 16.82L64.13 16.73L64.23 16.83Q62.97 17.55 62.97 19.30L63.03 19.36L62.98 19.31Q62.87 18.78 63.13 22.13L63.32 22.32L63.30 22.30Q63.46 22.23 65.10 22.84L65.26 23.00L65.08 22.81Q65.16 23.43 65.12 23.93L65.20 24.01L65.22 24.03Q65.16 24.46 65.20 24.99L65.23 25.02L65.09 24.88Q67.01 25.39 69.03 25.51L69.06 25.54L68.92 25.40Q68.89 23.43 70.00 22.60L70.03 22.63L70.06 22.66Q70.92 22.04 72.94 21.81L72.88 21.75L72.81 21.68Q74.10 21.83 74.67 22.02L74.59 21.94L74.67 22.01Q74.59 22.01 74.63 22.12L74.63 22.13L74.64 22.32L74.84 22.99L74.68 22.83Q74.73 23.06 74.69 23.22L74.68 23.21L74.64 23.17Q74.66 24.97 73.14 26.15L73.20 26.21L73.08 26.10Q72.29 27.13 70.27 27.32L70.22 27.27L70.12 27.17Q69.39 27.31 68.51 27.31L68.56 27.37L68.55 27.35Q68.60 27.71 68.75 28.39L68.76 28.40L68.72 28.36Q70.54 28.43 71.99 29.15L71.98 29.15L71.81 29.10L70.26 29.29L70.30 29.33Q70.26 29.60 70.38 30.21L70.49 30.33L70.42 30.25Q72.62 30.24 74.33 31.57L74.36 31.60L74.30 31.55Q74.45 31.85 74.76 33.48L74.90 33.63L74.91 33.64Q74.93 36.40 72.00 36.82L72.16 36.97L72.16 36.98Q69.97 37.15 69.40 37.12L69.34 37.05L69.37 37.08Q68.96 37.02 68.43 36.94L68.46 36.97L68.49 36.54L68.61 36.10L68.53 35.60L68.61 35.33L68.72 35.45Q67.61 35.37 66.82 35.56L66.84 35.58L66.91 35.65Q66.75 35.30 66.75 35.11L66.93 35.29L66.90 35.26Q66.86 34.99 66.86 34.76L66.81 34.71L66.95 34.85Q66.99 34.44 67.14 33.71L67.01 33.58L67.04 33.61Q65.21 33.88 63.35 34.22L63.43 34.31L63.36 34.23Q63.39 34.76 63.28 35.88L63.24 35.85L63.26 35.87Q63.18 37.03 63.18 37.64L63.19 37.64L63.20 37.66Q63.21 39.64 64.58 40.40L64.50 40.32L64.53 40.35Q66.06 42.68 70.78 42.49L70.78 42.49L70.72 42.43Q71.52 42.47 73.04 42.62Z"/><path d="M20 17 C83 23,57 19,139 31" stroke="#8e3ae2" fill="none"/><path fill="#68eded" d="M120.62 19.66L120.66 19.70L120.60 19.64Q118.56 19.70 117.61 19.85L117.78 20.01L117.65 19.89Q116.02 20.12 114.80 20.65L114.83 20.68L114.77 20.62Q111.32 22.12 111.20 26.80L111.15 26.75L111.25 26.85Q111.24 29.58 111.89 32.51L111.89 32.51L111.72 32.35Q112.67 36.46 116.29 37.64L116.27 37.62L116.39 37.73Q118.13 38.15 119.58 38.00L119.58 38.00L120.11 38.07L120.14 38.10Q120.26 38.03 120.45 38.07L120.48 38.10L120.44 38.06Q120.51 37.98 120.67 37.94L120.80 38.08L120.81 38.09Q123.28 37.66 124.65 37.09L124.74 37.18L121.25 33.73L121.25 33.73Q121.56 33.39 122.17 32.78L122.02 32.63L123.12 31.91L123.11 31.89Q124.80 33.82 126.78 35.87L126.88 35.97L126.93 36.02Q129.09 34.03 129.36 28.67L129.44 28.74L129.45 28.76Q129.45 27.76 129.45 26.85L129.49 26.90L129.41 26.82Q129.52 21.25 124.46 20.15L124.45 20.14L124.47 20.16Q123.08 19.76 120.57 19.61ZM133.42 41.75L133.34 41.67L133.34 41.67Q132.76 42.11 131.58 42.99L131.53 42.95L127.24 39.38L127.27 39.41Q124.71 40.54 120.45 40.58L120.45 40.58L120.55 40.68Q113.87 40.67 111.06 38.42L111.17 38.53L111.19 38.56Q109.30 36.66 108.84 33.69L108.93 33.79L108.96 33.81Q108.74 31.99 108.36 28.42L108.35 28.40L108.39 28.44Q108.39 27.72 108.28 25.97L108.17 25.87L108.13 25.83Q108.03 24.32 108.07 23.44L108.09 23.47L108.06 23.43Q108.19 20.41 109.95 18.85L109.88 18.78L109.91 18.81Q111.55 17.60 114.75 17.10L114.75 17.10L114.64 16.99Q117.09 16.58 119.98 16.66L120.10 16.78L120.00 16.68Q127.43 16.72 130.55 19.08L130.61 19.15L130.58 19.11Q132.73 21.23 132.46 26.14L132.53 26.20L132.55 26.23Q132.35 29.87 132.16 31.20L132.19 31.23L132.14 31.18Q131.58 35.76 129.26 38.08L129.14 37.97L129.19 38.01Q130.69 39.29 133.43 41.76ZM128.45 17.37L128.65 17.56L128.53 17.44Q126.62 16.83 120.11 16.34L120.09 16.31L120.05 16.28Q118.57 16.20 115.79 16.32L115.90 16.43L115.93 16.45Q111.73 16.71 109.48 18.69L109.49 18.69L109.48 18.69Q107.82 20.15 107.82 23.31L107.70 23.18L107.69 23.18Q107.73 24.06 107.89 25.77L107.92 25.81L107.89 25.77Q108.06 27.50 108.06 28.38L108.10 28.42L108.00 28.32Q108.26 30.18 108.64 33.76L108.66 33.78L108.65 33.77Q108.95 36.58 110.55 38.64L110.47 38.56L110.41 38.50Q110.91 39.49 112.12 40.63L112.00 40.50L112.13 40.64Q114.71 42.49 119.88 42.76L119.97 42.84L120.05 42.92Q120.42 42.95 122.82 43.06L122.73 42.97L122.65 42.89Q127.60 43.20 129.89 42.14L129.89 42.14L129.78 42.03Q130.64 42.70 135.36 46.28L135.33 46.24L135.48 46.39Q135.95 45.73 137.24 44.74L137.22 44.71L137.27 44.76Q136.44 44.12 135.64 43.44L135.55 43.35L133.93 41.91L134.03 41.87L134.06 41.90Q133.49 41.44 132.27 40.41L132.20 40.34L132.30 40.44Q134.18 37.90 134.18 33.37L134.09 33.28L134.27 33.46Q134.20 32.97 134.24 32.14L134.13 32.03L134.25 32.15Q134.22 31.24 134.22 30.82L134.22 30.82L134.30 30.91Q134.20 25.28 133.48 22.92L133.48 22.93L133.50 22.95Q133.14 21.67 132.26 20.60L132.23 20.57L132.19 20.53Q131.42 18.43 128.49 17.41ZM122.56 22.05L122.51 22.00L122.59 22.09Q126.59 21.94 128.42 23.54L128.37 23.49L128.34 23.46Q128.99 24.75 129.10 26.08L129.07 26.06L129.09 26.08Q129.10 27.26 129.02 28.63L129.15 28.76L129.12 28.73Q128.77 33.68 126.83 35.39L126.81 35.37L126.81 35.37Q125.48 34.04 122.97 31.30L123.02 31.35L123.03 31.36Q122.14 31.99 120.57 33.55L120.64 33.61L120.63 33.60Q121.16 34.17 122.30 35.35L122.32 35.37L122.40 35.57L122.25 35.42Q122.78 35.91 123.81 36.98L123.93 37.09L123.85 37.01Q122.83 37.25 120.50 37.55L120.63 37.67L119.99 37.57L119.60 37.60L119.66 37.70L119.68 37.71Q116.09 37.59 114.11 35.96L114.21 36.05L114.26 36.11Q113.11 33.89 113.15 30.77L113.11 30.73L113.14 30.75Q113.38 22.13 122.56 22.06Z"/><path fill="#dede77" d="M40.61 49.59L40.68 49.65L40.68 49.65Q43.56 45.76 46.45 39.55L46.54 39.64L46.37 39.48Q43.27 32.95 37.18 24.88L37.14 24.83L37.22 24.92Q39.18 26.12 41.96 26.76L41.86 26.66L41.84 26.65Q45.38 31.33 47.82 36.54L47.83 36.55L47.90 36.62Q50.02 31.28 53.10 26.86L53.18 26.94L53.14 26.91Q55.45 26.66 57.54 25.86L57.44 25.76L57.53 25.85Q53.93 29.48 50.47 36.91L50.60 37.04L47.70 42.97L47.70 42.97Q46.28 46.12 44.53 48.74L44.48 48.70L44.62 48.84Q42.17 49.17 40.72 49.70ZM46.75 50.90L46.92 51.06L46.88 51.02Q48.52 48.06 49.97 44.79L50.06 44.87L52.69 38.44L52.78 38.54Q56.29 30.51 59.60 26.51L59.49 26.40L59.50 26.41Q58.19 27.12 56.29 27.80L56.36 27.87L57.42 26.50L57.42 26.50Q57.77 25.60 58.38 24.91L58.57 25.10L58.39 24.92Q55.78 26.04 52.92 26.50L52.99 26.56L52.87 26.45Q50.26 30.50 48.32 34.95L48.35 34.98L48.26 34.89Q46.66 31.61 44.87 28.80L44.78 28.70L44.84 28.77Q44.63 28.75 44.27 28.71L44.37 28.81L44.24 28.68Q43.88 28.65 43.69 28.65L43.81 28.76L43.66 28.61Q42.91 27.37 41.95 26.22L41.95 26.22L42.10 26.37Q38.83 25.61 36.09 23.90L36.03 23.84L36.09 23.90Q42.29 31.86 45.99 39.47L46.04 39.52L45.96 39.44Q43.81 44.53 39.74 50.17L39.77 50.19L39.80 50.22Q40.59 49.91 41.39 49.75L41.52 49.89L43.07 49.46L43.09 49.48Q42.39 50.11 41.21 51.75L41.31 51.85L41.33 51.87Q43.63 51.27 46.90 51.04Z"/><path fill="#8d72de" d="M89.98 49.62L89.96 49.60L89.93 49.57Q92.78 45.65 95.68 39.44L95.71 39.48L95.85 39.62Q92.70 33.05 86.61 24.98L86.66 25.02L86.50 24.87Q88.48 26.08 91.25 26.72L91.33 26.80L91.27 26.74Q94.80 31.41 97.24 36.63L97.25 36.65L97.13 36.52Q99.30 31.23 102.38 26.81L102.52 26.95L102.39 26.82Q104.68 26.56 106.78 25.76L106.86 25.85L106.84 25.83Q103.40 29.62 99.94 37.05L99.97 37.08L97.10 43.04L97.16 43.10Q95.57 46.08 93.82 48.70L93.87 48.75L93.95 48.84Q91.52 49.18 90.07 49.72ZM96.24 51.05L96.22 51.03L96.17 50.98Q97.82 48.02 99.26 44.75L99.26 44.74L102.15 38.57L102.13 38.55Q105.60 30.48 108.91 26.49L108.88 26.46L108.79 26.37Q107.47 27.06 105.56 27.75L105.60 27.78L106.74 26.49L106.73 26.48Q107.13 25.62 107.74 24.93L107.87 25.07L107.85 25.05Q105.14 26.07 102.29 26.53L102.28 26.52L102.24 26.48Q99.55 30.45 97.60 34.90L97.67 34.97L97.53 34.83Q95.87 31.49 94.08 28.67L94.15 28.74L94.14 28.73Q93.95 28.73 93.59 28.69L93.61 28.72L93.67 28.78Q93.16 28.59 92.97 28.59L93.07 28.69L93.04 28.66Q92.32 27.45 91.37 26.31L91.43 26.37L91.40 26.34Q88.29 25.74 85.55 24.02L85.54 24.02L85.42 23.89Q91.65 31.88 95.35 39.50L95.47 39.62L95.49 39.64Q93.21 44.59 89.14 50.23L89.23 50.33L89.06 50.15Q90.03 50.02 90.83 49.87L90.73 49.77L92.47 49.53L92.37 49.42Q91.86 50.25 90.68 51.88L90.54 51.74L90.56 51.77Q92.80 51.11 96.07 50.88Z"/></svg>